<svg xmlns="http://www.w3.org/2000/svg" viewBox="0 0 900 600" role="img" aria-labelledby="title desc">
  <title id="title">Ilustración de productos básicos Ventas Garzón</title>
  <desc id="desc">Composición premium de productos básicos: arroz, detergente, aceite, café y bebidas.</desc>
  <defs>
    <linearGradient id="green" x1="0" x2="1" y1="0" y2="1">
      <stop offset="0" stop-color="#10b981"/>
      <stop offset="1" stop-color="#059669"/>
    </linearGradient>
    <linearGradient id="amber" x1="0" x2="1" y1="0" y2="1">
      <stop offset="0" stop-color="#fbbf24"/>
      <stop offset="1" stop-color="#d97706"/>
    </linearGradient>
    <filter id="softShadow" x="-20%" y="-20%" width="140%" height="140%">
      <feDropShadow dx="0" dy="18" stdDeviation="20" flood-color="#0f172a" flood-opacity="0.14"/>
    </filter>
  </defs>
  <rect width="900" height="600" rx="42" fill="#f8fafc"/>
  <circle cx="720" cy="110" r="150" fill="#10b981" opacity="0.10"/>
  <circle cx="170" cy="500" r="170" fill="#f59e0b" opacity="0.12"/>
  <g filter="url(#softShadow)">
    <g transform="translate(110 150)">
      <rect width="190" height="260" rx="28" fill="#ffffff"/>
      <rect x="20" y="0" width="150" height="58" rx="28" fill="#10b981"/>
      <path d="M50 110 h90 M50 145 h70 M50 180 h100" stroke="#94a3b8" stroke-width="10" stroke-linecap="round"/>
      <rect x="42" y="214" width="106" height="24" rx="12" fill="#f59e0b"/>
    </g>
    <g transform="translate(335 110)">
      <path d="M74 0 h82 l-14 260 h-54z" fill="#ffffff"/>
      <path d="M66 0 h98 v36 c-12 14-86 14-98 0z" fill="#059669"/>
      <rect x="30" y="104" width="70" height="106" rx="18" fill="#10b981" opacity="0.9"/>
      <circle cx="65" cy="157" r="25" fill="#ffffff" opacity="0.9"/>
    </g>
    <g transform="translate(535 160)">
      <ellipse cx="80" cy="220" rx="95" ry="28" fill="#1e293b" opacity="0.12"/>
      <path d="M45 24 h70 v184 c0 28-70 28-70 0z" fill="#ffffff"/>
      <path d="M45 24 h70 v48H45z" fill="#f59e0b"/>
      <path d="M65 106 h30 M65 136 h30" stroke="#94a3b8" stroke-width="9" stroke-linecap="round"/>
      <rect x="32" y="186" width="96" height="18" rx="9" fill="#10b981"/>
    </g>
    <g transform="translate(665 90)">
      <rect x="20" y="0" width="120" height="230" rx="24" fill="#ffffff"/>
      <rect x="38" y="38" width="84" height="84" rx="18" fill="#10b981" opacity="0.95"/>
      <circle cx="80" cy="80" r="26" fill="#ffffff" opacity="0.86"/>
      <rect x="38" y="154" width="84" height="22" rx="11" fill="#f59e0b"/>
    </g>
  </g>
  <text x="70" y="500" font-family="Arial, sans-serif" font-size="48" font-weight="800" fill="#0f172a" letter-spacing="-1.2">Básicos listos</text>
  <text x="72" y="538" font-family="Arial, sans-serif" font-size="24" font-weight="600" fill="#64748b">Ventas Garzón</text>
</svg>
